<?xml version="1.0" encoding="UTF-8"?>
<svg id="Logo" xmlns="http://www.w3.org/2000/svg" viewBox="0 0 804.28 697.52">
  <defs>
    <style>
      .cls-1 {
        fill: #161615;
      }
    </style>
  </defs>
  <path id="Tenedor" class="cls-1" d="M5.6,238.13l76.02,85.29c3.84,4.31,8.88,9.88,14.9,10.27,4.19.27,2.76-6.17.81-8.55L17.27,227.37c-1.09-1.33-.36-3.91.03-4.97.27-.72,1.63.42,3.55-.3l90.64,91.04c2.02,2.03,4.13,2.74,5.54,2.3,2.08-.66,3.2-4.46,1.12-6.8L31.33,210.58c2.91-4.7,6.25-2.49,8.92.01l90.59,85.04c1.96,1.84,4.03,2.77,5.41,2.28,1.84-.66,3.64-4.39,1.76-6.43l-36.3-39.49c-17.72-19.28-35-37.79-55.02-56.98,5.2-4.7,10.44.14,14.55,3.47,35.48,28.73,69.13,58.58,101.43,90.62,13.89,13.77,17.18,33.49,14.31,51.61-1.9,12.01,1.54,20.43,9.87,28.13l85.71,79.19c1.02,15.79.99,29.61-.41,45.69l-39.54-42.06-64.25-66.53c-7.63-7.9-15.01-12.45-27.39-10.11-22.49,4.25-46.55-2.87-61.16-21.93C69.8,340.02-1.78,243.37.03,237.65c.62-1.96,3.3-2.06,5.57.49Z"/>
  <path id="Brazo" class="cls-1" d="M566.55,446.51c-12.06-4.05-20.52-10.11-31.22-17.47l62.75-35.63-31.52,53.09Z"/>
  <path id="Espatula" class="cls-1" d="M641.64,328.68c-10.26-3.79-18.62-8.76-26.89-14.47,25.4-42.83-26.21-56.79-7.66-92.11l58.98-112.33c3.44-6.56,12.72-12.35,20.94-8.96,38.68,15.93,74.41,36.55,108.67,60.28,10.28,7.12,11.02,19.34,3.92,29.02l-77.11,105.05c-18.78,25.58-58.82-5.45-80.85,33.52ZM652.39,225.85l41.99-80.79c2.57-4.94-1.28-10.21-4.87-11.55-4.49-1.68-8.88.69-11.26,5.64-13.83,28.77-29.05,56.01-44.38,84.1-2.45,4.5,3.88,8.86,6.87,8.91,3.67.06,9-1.21,11.65-6.31ZM680.64,249.67l49.9-83.94c3.77-6.35-2.12-12.2-6.72-13.64-6.32-1.98-10.02,1.38-13.07,7l-44.33,81.69c-2.37,4.37.58,9.28,3.39,10.8,2.54,1.36,8.25,2.42,10.83-1.91ZM713.29,266.23c16.05-27.41,32.73-53.48,50.14-79.98,3.32-5.06-.33-11.98-4.63-12.68-4.7-.76-7.86.85-10.79,5.51l-49.58,78.73c-2.65,4.21-.08,10.45,2.75,11.77,3.79,1.76,9.49,1.13,12.11-3.35Z"/>
  <path id="BW" class="cls-1" d="M500.16,501.65l-282.48-156.65,69.96-39.97c16.83,11.88,33.01,22.43,50.99,32.41l95.13,52.77,68.43-39.3-209.32-115.72c-25.02,11.17-45.36,31.79-70.07,43.55-11.3-21.95-21.68-43.28-32.49-67.43-26.85,4.96-53.76-.04-72.44-20.43-23.83-26.01-20.32-65.44,5.18-89.41,10.51-9.88,23.08-14.33,37.82-18.41,21.89-46.67,73.74-69.63,123.25-56.57,38.42-35.56,87.27-31.87,129.11-9.21,17.28,9.36,39.38,4.74,52.16,26.64,10.82,18.53,16.8,40.9,5.74,64.72-7.62,16.42-24.11,31.79-46.75,37.18l18.87,63.37c-18.54-1.28-35.17-7.29-52.99-.91l251.84,141.09-138.24,81.02,130.09,74.37-344.34,192.77-.21-254.23,67.41,36.97,1.22,103.23,142.14-81.85ZM204.6,184.04c55.79-46.79,133.2-85.16,205.56-61.89,4.21,1.35,6.19,8.03,10.72,8.57,17.3-1,29.97-15.11,35.98-28.23,7.56-16.5,5.78-34.45-4.27-48.57-7.56-10.63-18.72-17.74-31.49-17.7-.66,4.68,1.68,8.64-1.54,12.43-27.69-40.64-83.67-44.03-122.15-14.8,5.02,6.64,13.08,7.64,13.95,16.91-32.68-15.02-67.13-18.59-98.37-1.47-27.4,15.02-43.78,41.34-50.86,70.93-3.65-7.19-.03-13.5-3.96-20.04-25.05,5.41-43.9,29.54-39.77,55.51,4.34,27.26,29.1,42.05,55.16,41.73,13.05-.16,20.84-4.83,31.03-13.38ZM238.85,250.68c56.48-42.04,109.75-63.36,181.24-60.83l-15.83-54.36c-69.58-23.97-149.15,20.58-198.99,68.12,6.48,17.52,14.39,31.85,21.6,48.16,1.92,4.35,8.44,1.55,11.98-1.09Z"/>
</svg>